<svg width="47" height="52" viewBox="0 0 47 52" fill="none" xmlns="http://www.w3.org/2000/svg">
<path d="M40.9317 4.14007H35.421V2.08444C35.421 1.48371 34.9215 0.996094 34.3063 0.996094C33.691 0.996094 33.1916 1.48371 33.1916 2.08444V4.14007H14.3679V2.08444C14.3679 1.48371 13.8685 0.996094 13.2532 0.996094C12.638 0.996094 12.1385 1.48371 12.1385 2.08444V4.14007H6.25622C2.9063 4.14385 0.191802 6.79378 0.187927 10.0645V28.2017C0.187927 28.8024 0.687354 29.2896 1.30263 29.2896C1.9179 29.2896 2.41694 28.8024 2.41694 28.2017V21.0678H44.771V45.1294C44.7683 47.1987 43.0511 48.8753 40.9317 48.8775H6.25622C4.13685 48.8753 2.41966 47.1987 2.41694 45.1294V38.8418C2.41694 38.2411 1.9179 37.7535 1.30263 37.7535C0.687354 37.7535 0.187927 38.2411 0.187927 38.8418V45.1294C0.191802 48.4001 2.9063 51.0504 6.25622 51.0542H40.9317C44.2816 51.0504 46.9961 48.4001 47 45.1294V10.0645C46.9961 6.79378 44.2816 4.14385 40.9317 4.14007ZM2.41694 18.8912V10.0645C2.41966 7.99524 4.13685 6.31865 6.25622 6.31638H12.1385V9.27121C10.4601 9.80612 9.42907 11.4528 9.70648 13.1555C9.9839 14.8578 11.4876 16.1107 13.2532 16.1107C15.0189 16.1107 16.5226 14.8578 16.8 13.1555C17.0774 11.4528 16.0464 9.80612 14.3679 9.27121V6.31638H33.1916V9.27121C31.5131 9.80612 30.4821 11.4528 30.7595 13.1555C31.0369 14.8578 32.5406 16.1107 34.3063 16.1107C36.0719 16.1107 37.5756 14.8578 37.853 13.1555C38.1304 11.4528 37.0994 9.80612 35.421 9.27121V6.31638H40.9317C43.0511 6.31865 44.7683 7.99524 44.771 10.0645V18.8912H2.41694ZM13.2532 11.2739C14.0057 11.2739 14.6155 11.8693 14.6155 12.604C14.6155 13.3382 14.0057 13.934 13.2532 13.934C12.5012 13.934 11.8909 13.3382 11.8909 12.604C11.8921 11.8697 12.5016 11.2746 13.2532 11.2739ZM34.3063 11.2739C35.0587 11.2739 35.6685 11.8693 35.6685 12.604C35.6685 13.3382 35.0587 13.934 34.3063 13.934C33.5542 13.934 32.944 13.3382 32.944 12.604C32.9451 11.8697 33.5546 11.2746 34.3063 11.2739Z" fill="#BEAD8E"/>
</svg>
